<svg xmlns="http://www.w3.org/2000/svg" xmlns:xlink="http://www.w3.org/1999/xlink" width="480" zoomAndPan="magnify" viewBox="0 0 360 359.999987" height="480" preserveAspectRatio="xMidYMid meet" version="1.0"><path fill="#caddff" d="M 28.835938 275.242188 C 37.699219 297.136719 58.527344 307.449219 71.835938 314.042969 C 124.296875 340.019531 221.574219 326.683594 279.160156 278.875 C 292.632812 267.6875 341.992188 219.5 326.78125 140.441406 C 313.335938 70.550781 245.332031 29.457031 187.570312 24.222656 C 139.71875 19.886719 76.277344 38.0625 54.066406 80.785156 C 40.101562 107.648438 56.769531 116.121094 45.242188 176.9375 C 35.265625 229.574219 17.996094 248.457031 28.835938 275.242188 " fill-opacity="1" fill-rule="nonzero"/><path fill="#5479f7" d="M 191.257812 268.441406 L 191.273438 290.417969 C 191.28125 297.078125 183.578125 303.753906 168.101562 308.917969 C 137.144531 319.246094 86.625 319.683594 54.265625 310.023438 C 53.734375 309.863281 53.210938 309.703125 52.6875 309.542969 C 36.292969 304.382812 28.058594 297.523438 28.046875 290.644531 L 28.03125 268.667969 C 28.039062 275.542969 36.277344 282.40625 52.671875 287.5625 C 53.195312 287.726562 53.71875 287.890625 54.25 288.046875 C 86.609375 297.707031 137.128906 297.269531 168.082031 286.941406 C 183.558594 281.777344 191.265625 275.097656 191.257812 268.441406 " fill-opacity="1" fill-rule="nonzero"/><path fill="#99b9ff" d="M 165.027344 249.058594 C 165.5625 249.21875 166.085938 249.378906 166.609375 249.542969 C 198.886719 259.699219 199.546875 276.441406 168.082031 286.941406 C 137.128906 297.269531 86.609375 297.707031 54.25 288.046875 C 53.71875 287.890625 53.195312 287.726562 52.671875 287.5625 C 20.398438 277.410156 19.742188 260.667969 51.203125 250.167969 C 82.15625 239.835938 132.667969 239.398438 165.027344 249.058594 " fill-opacity="1" fill-rule="nonzero"/><path fill="#5479f7" d="M 191.304688 239.589844 L 191.320312 261.566406 C 191.332031 268.226562 183.625 274.902344 168.148438 280.066406 C 137.195312 290.398438 86.675781 290.832031 54.316406 281.175781 C 53.78125 281.015625 53.257812 280.855469 52.738281 280.691406 C 36.339844 275.53125 28.105469 268.671875 28.097656 261.792969 L 28.078125 239.816406 C 28.089844 246.695312 36.324219 253.554688 52.71875 258.714844 C 53.242188 258.878906 53.765625 259.039062 54.296875 259.199219 C 86.65625 268.859375 137.175781 268.421875 168.132812 258.09375 C 183.609375 252.925781 191.3125 246.25 191.304688 239.589844 " fill-opacity="1" fill-rule="nonzero"/><path fill="#99b9ff" d="M 165.078125 220.210938 C 165.609375 220.367188 166.136719 220.527344 166.660156 220.695312 C 198.9375 230.847656 199.59375 247.59375 168.132812 258.09375 C 137.175781 268.421875 86.65625 268.859375 54.296875 259.199219 C 53.765625 259.039062 53.242188 258.878906 52.71875 258.714844 C 20.445312 248.558594 19.789062 231.816406 51.25 221.316406 C 82.203125 210.988281 132.714844 210.550781 165.078125 220.210938 " fill-opacity="1" fill-rule="nonzero"/><path fill="#5479f7" d="M 190.957031 210.089844 L 190.972656 232.066406 C 190.984375 238.726562 183.277344 245.402344 167.800781 250.566406 C 136.847656 260.898438 86.328125 261.332031 53.96875 251.675781 C 53.4375 251.515625 52.914062 251.355469 52.390625 251.191406 C 35.996094 246.03125 27.757812 239.171875 27.75 232.292969 L 27.730469 210.316406 C 27.742188 217.195312 35.976562 224.054688 52.371094 229.214844 C 52.894531 229.378906 53.417969 229.539062 53.949219 229.699219 C 86.3125 239.355469 136.828125 238.921875 167.785156 228.589844 C 183.261719 223.425781 190.96875 216.75 190.957031 210.089844 " fill-opacity="1" fill-rule="nonzero"/><path fill="#99b9ff" d="M 164.730469 190.707031 C 165.261719 190.867188 165.785156 191.027344 166.3125 191.195312 C 198.585938 201.347656 199.246094 218.089844 167.785156 228.589844 C 136.828125 238.921875 86.3125 239.355469 53.949219 229.699219 C 53.417969 229.539062 52.894531 229.378906 52.371094 229.214844 C 20.101562 219.058594 19.441406 202.316406 50.90625 191.816406 C 81.855469 181.488281 132.371094 181.050781 164.730469 190.707031 " fill-opacity="1" fill-rule="nonzero"/><path fill="#5479f7" d="M 190.914062 180.613281 L 190.929688 202.589844 C 190.9375 209.246094 183.234375 215.921875 167.757812 221.089844 C 136.800781 231.417969 86.285156 231.855469 53.921875 222.195312 C 53.390625 222.039062 52.867188 221.878906 52.34375 221.710938 C 35.949219 216.554688 27.714844 209.691406 27.703125 202.816406 L 27.6875 180.839844 C 27.695312 187.71875 35.933594 194.578125 52.328125 199.738281 C 52.851562 199.902344 53.375 200.0625 53.90625 200.21875 C 86.265625 209.878906 136.785156 209.445312 167.738281 199.113281 C 183.21875 193.949219 190.921875 187.273438 190.914062 180.613281 " fill-opacity="1" fill-rule="nonzero"/><path fill="#99b9ff" d="M 164.683594 161.230469 C 165.21875 161.390625 165.742188 161.550781 166.265625 161.714844 C 198.542969 171.871094 199.203125 188.613281 167.738281 199.113281 C 136.785156 209.445312 86.265625 209.878906 53.90625 200.21875 C 53.375 200.0625 52.851562 199.902344 52.328125 199.738281 C 20.054688 189.582031 19.398438 172.835938 50.859375 162.335938 C 81.8125 152.011719 132.324219 151.574219 164.683594 161.230469 " fill-opacity="1" fill-rule="nonzero"/><path fill="#5479f7" d="M 191.023438 152.328125 L 191.042969 174.304688 C 191.050781 180.964844 183.347656 187.640625 167.871094 192.804688 C 136.914062 203.136719 86.394531 203.570312 54.035156 193.910156 C 53.503906 193.753906 52.980469 193.59375 52.457031 193.429688 C 36.0625 188.269531 27.828125 181.410156 27.816406 174.53125 L 27.800781 152.554688 C 27.808594 159.433594 36.042969 166.292969 52.441406 171.453125 C 52.960938 171.617188 53.488281 171.777344 54.019531 171.9375 C 86.378906 181.59375 136.894531 181.160156 167.851562 170.828125 C 183.328125 165.664062 191.03125 158.988281 191.023438 152.328125 " fill-opacity="1" fill-rule="nonzero"/><path fill="#99b9ff" d="M 164.796875 132.945312 C 165.332031 133.105469 165.855469 133.265625 166.378906 133.429688 C 198.65625 143.585938 199.316406 160.328125 167.851562 170.828125 C 136.894531 181.160156 86.378906 181.59375 54.019531 171.9375 C 53.488281 171.777344 52.960938 171.617188 52.441406 171.453125 C 20.167969 161.296875 19.511719 144.554688 50.972656 134.054688 C 81.925781 123.726562 132.4375 123.289062 164.796875 132.945312 " fill-opacity="1" fill-rule="nonzero"/><path fill="#5479f7" d="M 190.832031 123.539062 L 190.847656 145.515625 C 190.855469 152.175781 183.152344 158.851562 167.675781 164.015625 C 136.71875 174.34375 86.203125 174.78125 53.839844 165.125 C 53.308594 164.964844 52.785156 164.804688 52.265625 164.640625 C 35.867188 159.480469 27.632812 152.621094 27.621094 145.742188 L 27.605469 123.769531 C 27.613281 130.644531 35.851562 137.503906 52.246094 142.664062 C 52.769531 142.828125 53.292969 142.988281 53.824219 143.144531 C 86.183594 152.808594 136.703125 152.371094 167.65625 142.042969 C 183.136719 136.875 190.839844 130.199219 190.832031 123.539062 " fill-opacity="1" fill-rule="nonzero"/><path fill="#99b9ff" d="M 164.601562 104.15625 C 165.136719 104.316406 165.660156 104.476562 166.183594 104.640625 C 198.460938 114.796875 199.121094 131.542969 167.660156 142.039062 C 136.703125 152.371094 86.183594 152.804688 53.824219 143.148438 C 53.292969 142.988281 52.769531 142.828125 52.246094 142.664062 C 19.972656 132.507812 19.316406 115.765625 50.777344 105.265625 C 81.730469 94.9375 132.242188 94.5 164.601562 104.15625 " fill-opacity="1" fill-rule="nonzero"/><path fill="#5479f7" d="M 190.832031 94.183594 L 190.847656 116.160156 C 190.855469 122.820312 183.15625 129.5 167.675781 134.664062 C 136.71875 144.992188 86.203125 145.429688 53.839844 135.769531 C 53.308594 135.609375 52.785156 135.449219 52.265625 135.285156 C 35.867188 130.125 27.632812 123.265625 27.621094 116.390625 L 27.605469 94.414062 C 27.613281 101.292969 35.851562 108.148438 52.246094 113.308594 C 52.769531 113.472656 53.292969 113.636719 53.824219 113.792969 C 86.183594 123.453125 136.703125 123.015625 167.660156 112.6875 C 183.136719 107.519531 190.839844 100.84375 190.832031 94.183594 " fill-opacity="1" fill-rule="nonzero"/><path fill="#99b9ff" d="M 164.601562 74.804688 C 165.136719 74.964844 165.660156 75.125 166.183594 75.289062 C 198.460938 85.445312 199.121094 102.1875 167.65625 112.6875 C 136.703125 123.019531 86.183594 123.453125 53.824219 113.792969 C 53.292969 113.636719 52.769531 113.476562 52.246094 113.3125 C 19.972656 103.15625 19.316406 86.414062 50.777344 75.914062 C 81.730469 65.585938 132.242188 65.148438 164.601562 74.804688 " fill-opacity="1" fill-rule="nonzero"/><path fill="#99b9ff" d="M 324.945312 153.777344 L 228.90625 153.777344 C 226.476562 153.777344 224.503906 155.746094 224.503906 158.179688 L 224.503906 200.726562 C 224.503906 203.160156 226.476562 205.128906 228.90625 205.128906 L 324.945312 205.128906 C 327.375 205.128906 329.347656 203.160156 329.347656 200.726562 L 329.347656 158.179688 C 329.347656 155.746094 327.375 153.777344 324.945312 153.777344 " fill-opacity="1" fill-rule="nonzero"/><path fill="#000000" d="M 228.910156 154.324219 C 226.785156 154.324219 225.054688 156.050781 225.054688 158.179688 L 225.054688 200.726562 C 225.054688 202.851562 226.785156 204.578125 228.910156 204.578125 L 324.945312 204.578125 C 327.070312 204.578125 328.800781 202.851562 328.800781 200.726562 L 328.800781 158.179688 C 328.800781 156.050781 327.070312 154.324219 324.945312 154.324219 Z M 324.945312 205.679688 L 228.910156 205.679688 C 226.179688 205.679688 223.957031 203.457031 223.957031 200.726562 L 223.957031 158.179688 C 223.957031 155.449219 226.179688 153.226562 228.910156 153.226562 L 324.945312 153.226562 C 327.679688 153.226562 329.902344 155.449219 329.902344 158.179688 L 329.902344 200.726562 C 329.902344 203.457031 327.679688 205.679688 324.945312 205.679688 " fill-opacity="1" fill-rule="nonzero"/><path fill="#caddff" d="M 325.804688 161.558594 L 227.992188 161.558594 C 227.6875 161.558594 227.441406 161.3125 227.441406 161.011719 C 227.441406 160.707031 227.6875 160.460938 227.992188 160.460938 L 325.804688 160.460938 C 326.109375 160.460938 326.355469 160.707031 326.355469 161.011719 C 326.355469 161.3125 326.109375 161.558594 325.804688 161.558594 " fill-opacity="1" fill-rule="nonzero"/><path fill="#caddff" d="M 232.351562 157.164062 C 232.351562 157.785156 231.84375 158.292969 231.222656 158.292969 C 230.601562 158.292969 230.09375 157.785156 230.09375 157.164062 C 230.09375 156.539062 230.601562 156.035156 231.222656 156.035156 C 231.84375 156.035156 232.351562 156.539062 232.351562 157.164062 " fill-opacity="1" fill-rule="nonzero"/><path fill="#caddff" d="M 236.867188 157.164062 C 236.867188 157.785156 236.363281 158.292969 235.738281 158.292969 C 235.113281 158.292969 234.609375 157.785156 234.609375 157.164062 C 234.609375 156.539062 235.113281 156.035156 235.738281 156.035156 C 236.363281 156.035156 236.867188 156.539062 236.867188 157.164062 " fill-opacity="1" fill-rule="nonzero"/><path fill="#caddff" d="M 241.386719 157.164062 C 241.386719 157.785156 240.878906 158.292969 240.257812 158.292969 C 239.632812 158.292969 239.125 157.785156 239.125 157.164062 C 239.125 156.539062 239.632812 156.035156 240.257812 156.035156 C 240.878906 156.035156 241.386719 156.539062 241.386719 157.164062 " fill-opacity="1" fill-rule="nonzero"/><path fill="#caddff" d="M 325.804688 157.53125 L 319.574219 157.53125 C 319.273438 157.53125 319.027344 157.285156 319.027344 156.980469 C 319.027344 156.679688 319.273438 156.433594 319.574219 156.433594 L 325.804688 156.433594 C 326.109375 156.433594 326.355469 156.679688 326.355469 156.980469 C 326.355469 157.285156 326.109375 157.53125 325.804688 157.53125 " fill-opacity="1" fill-rule="nonzero"/><path fill="#caddff" d="M 316.648438 157.53125 L 256.566406 157.53125 C 256.265625 157.53125 256.015625 157.285156 256.015625 156.980469 C 256.015625 156.679688 256.265625 156.433594 256.566406 156.433594 L 316.648438 156.433594 C 316.949219 156.433594 317.195312 156.679688 317.195312 156.980469 C 317.195312 157.285156 316.949219 157.53125 316.648438 157.53125 " fill-opacity="1" fill-rule="nonzero"/><path fill="#caddff" d="M 249.609375 157.53125 L 244.113281 157.53125 C 243.808594 157.53125 243.5625 157.285156 243.5625 156.980469 C 243.5625 156.679688 243.808594 156.433594 244.113281 156.433594 L 249.609375 156.433594 C 249.910156 156.433594 250.15625 156.679688 250.15625 156.980469 C 250.15625 157.285156 249.910156 157.53125 249.609375 157.53125 " fill-opacity="1" fill-rule="nonzero"/><path fill="#caddff" d="M 260.230469 196.351562 L 230.921875 196.351562 L 230.921875 167.785156 L 260.230469 167.785156 L 260.230469 196.351562 " fill-opacity="1" fill-rule="nonzero"/><path fill="#caddff" d="M 271.589844 174.011719 L 265.359375 174.011719 L 265.359375 167.785156 L 271.589844 167.785156 L 271.589844 174.011719 " fill-opacity="1" fill-rule="nonzero"/><path fill="#caddff" d="M 322.875 174.011719 L 276.351562 174.011719 L 276.351562 167.785156 L 322.875 167.785156 L 322.875 174.011719 " fill-opacity="1" fill-rule="nonzero"/><path fill="#caddff" d="M 271.589844 185.363281 L 265.359375 185.363281 L 265.359375 179.140625 L 271.589844 179.140625 L 271.589844 185.363281 " fill-opacity="1" fill-rule="nonzero"/><path fill="#caddff" d="M 322.875 185.363281 L 276.351562 185.363281 L 276.351562 179.140625 L 322.875 179.140625 L 322.875 185.363281 " fill-opacity="1" fill-rule="nonzero"/><path fill="#caddff" d="M 271.589844 196.71875 L 265.359375 196.71875 L 265.359375 190.492188 L 271.589844 190.492188 L 271.589844 196.71875 " fill-opacity="1" fill-rule="nonzero"/><path fill="#caddff" d="M 322.875 196.351562 L 276.351562 196.351562 L 276.351562 190.125 L 322.875 190.125 L 322.875 196.351562 " fill-opacity="1" fill-rule="nonzero"/><path fill="#ffffff" d="M 299.988281 262.21875 L 159.265625 262.21875 C 157.652344 262.21875 156.375 260.921875 156.410156 259.316406 L 158.113281 183.066406 C 158.148438 181.464844 159.484375 180.167969 161.097656 180.167969 L 301.816406 180.167969 C 303.429688 180.167969 304.707031 181.464844 304.671875 183.066406 L 302.972656 259.316406 C 302.9375 260.921875 301.597656 262.21875 299.988281 262.21875 " fill-opacity="1" fill-rule="nonzero"/><path fill="#000000" d="M 161.09375 180.714844 C 159.78125 180.714844 158.691406 181.777344 158.660156 183.078125 L 156.957031 259.332031 C 156.945312 259.953125 157.171875 260.539062 157.605469 260.980469 C 158.042969 261.425781 158.628906 261.671875 159.265625 261.671875 L 299.984375 261.671875 C 301.300781 261.671875 302.390625 260.609375 302.421875 259.304688 L 304.125 183.054688 C 304.136719 182.433594 303.90625 181.847656 303.476562 181.40625 C 303.042969 180.960938 302.449219 180.714844 301.816406 180.714844 Z M 299.984375 262.765625 L 159.265625 262.765625 C 158.332031 262.765625 157.464844 262.40625 156.820312 261.746094 C 156.179688 261.09375 155.839844 260.226562 155.859375 259.304688 L 157.5625 183.054688 C 157.605469 181.160156 159.1875 179.617188 161.09375 179.617188 L 301.816406 179.617188 C 302.746094 179.617188 303.617188 179.980469 304.261719 180.640625 C 304.902344 181.292969 305.242188 182.160156 305.21875 183.078125 L 303.519531 259.332031 C 303.476562 261.226562 301.890625 262.765625 299.984375 262.765625 " fill-opacity="1" fill-rule="nonzero"/><path fill="#caddff" d="M 192.558594 257.851562 L 179.371094 257.851562 L 179.972656 230.84375 L 193.160156 230.84375 L 192.558594 257.851562 " fill-opacity="1" fill-rule="nonzero"/><path fill="#caddff" d="M 175.949219 257.851562 L 162.761719 257.851562 L 163.207031 237.890625 L 176.394531 237.890625 L 175.949219 257.851562 " fill-opacity="1" fill-rule="nonzero"/><path fill="#caddff" d="M 209.226562 257.851562 L 196.039062 257.851562 L 196.945312 217.273438 L 210.132812 217.273438 L 209.226562 257.851562 " fill-opacity="1" fill-rule="nonzero"/><path fill="#caddff" d="M 226.625 257.851562 L 213.4375 257.851562 L 214.167969 225.277344 L 227.351562 225.277344 L 226.625 257.851562 " fill-opacity="1" fill-rule="nonzero"/><path fill="#caddff" d="M 244.027344 257.855469 L 230.839844 257.855469 L 231.867188 211.699219 L 245.054688 211.699219 L 244.027344 257.855469 " fill-opacity="1" fill-rule="nonzero"/><path fill="#caddff" d="M 261.4375 257.308594 L 248.25 257.308594 L 249.003906 223.578125 L 262.191406 223.578125 L 261.4375 257.308594 " fill-opacity="1" fill-rule="nonzero"/><path fill="#caddff" d="M 279.203125 257.308594 L 266.015625 257.308594 L 267.0625 210.484375 L 280.25 210.484375 L 279.203125 257.308594 " fill-opacity="1" fill-rule="nonzero"/><path fill="#caddff" d="M 296.242188 257.308594 L 283.050781 257.308594 L 284.339844 199.570312 L 297.527344 199.570312 L 296.242188 257.308594 " fill-opacity="1" fill-rule="nonzero"/><path fill="#000000" d="M 172.527344 224.582031 C 172.351562 224.582031 172.175781 224.496094 172.066406 224.335938 C 171.902344 224.085938 171.96875 223.742188 172.222656 223.574219 L 202.589844 203.46875 C 202.800781 203.328125 203.085938 203.351562 203.273438 203.527344 L 215.691406 215.367188 L 239.460938 199.609375 C 239.675781 199.464844 239.960938 199.492188 240.148438 199.675781 L 253.636719 212.953125 L 293.128906 186.851562 C 293.382812 186.683594 293.726562 186.753906 293.890625 187.007812 C 294.058594 187.257812 293.988281 187.597656 293.738281 187.765625 L 253.871094 214.113281 C 253.652344 214.257812 253.367188 214.230469 253.183594 214.046875 L 239.695312 200.773438 L 215.929688 216.523438 C 215.714844 216.664062 215.433594 216.640625 215.246094 216.464844 L 202.832031 204.625 L 172.828125 224.492188 C 172.738281 224.554688 172.632812 224.582031 172.527344 224.582031 " fill-opacity="1" fill-rule="nonzero"/><path fill="#99b9ff" d="M 206.855469 203.832031 C 206.808594 205.980469 205.011719 207.8125 202.847656 207.929688 C 200.683594 208.039062 198.964844 206.390625 199.011719 204.242188 C 199.058594 202.09375 200.855469 200.261719 203.019531 200.144531 C 205.1875 200.03125 206.902344 201.683594 206.855469 203.832031 " fill-opacity="1" fill-rule="nonzero"/><path fill="#5479f7" d="M 243.640625 199.820312 C 243.59375 201.96875 241.796875 203.804688 239.632812 203.914062 C 237.464844 204.03125 235.75 202.378906 235.796875 200.230469 C 235.847656 198.082031 237.640625 196.25 239.804688 196.136719 C 241.972656 196.019531 243.6875 197.671875 243.640625 199.820312 " fill-opacity="1" fill-rule="nonzero"/><path fill="#99b9ff" d="M 219.90625 215.671875 C 219.855469 217.820312 218.0625 219.65625 215.894531 219.765625 C 213.726562 219.882812 212.011719 218.230469 212.058594 216.082031 C 212.105469 213.933594 213.902344 212.101562 216.070312 211.984375 C 218.234375 211.871094 219.953125 213.523438 219.90625 215.671875 " fill-opacity="1" fill-rule="nonzero"/><path fill="#caddff" d="M 176.558594 223.898438 C 176.511719 226.046875 174.714844 227.882812 172.546875 227.996094 C 170.382812 228.105469 168.664062 226.457031 168.714844 224.308594 C 168.761719 222.160156 170.558594 220.324219 172.722656 220.210938 C 174.890625 220.101562 176.605469 221.75 176.558594 223.898438 " fill-opacity="1" fill-rule="nonzero"/><path fill="#000000" d="M 172.933594 220.757812 C 172.871094 220.757812 172.8125 220.757812 172.75 220.761719 C 170.867188 220.859375 169.304688 222.457031 169.261719 224.320312 C 169.242188 225.199219 169.566406 226.007812 170.171875 226.59375 C 170.785156 227.191406 171.621094 227.492188 172.519531 227.445312 C 174.402344 227.347656 175.96875 225.75 176.007812 223.886719 C 176.027344 223.007812 175.707031 222.203125 175.101562 221.613281 C 174.527344 221.058594 173.765625 220.757812 172.933594 220.757812 Z M 172.335938 228.550781 C 171.21875 228.550781 170.1875 228.140625 169.40625 227.382812 C 168.578125 226.578125 168.136719 225.484375 168.164062 224.296875 C 168.21875 221.871094 170.25 219.792969 172.695312 219.664062 C 173.902344 219.601562 175.03125 220.011719 175.867188 220.824219 C 176.695312 221.628906 177.136719 222.722656 177.109375 223.910156 C 177.054688 226.335938 175.019531 228.414062 172.578125 228.542969 C 172.496094 228.546875 172.414062 228.550781 172.335938 228.550781 " fill-opacity="1" fill-rule="nonzero"/><path fill="#99b9ff" d="M 257.558594 213.148438 C 257.507812 215.296875 255.714844 217.128906 253.546875 217.242188 C 251.378906 217.355469 249.664062 215.707031 249.710938 213.558594 C 249.761719 211.410156 251.554688 209.574219 253.722656 209.460938 C 255.886719 209.347656 257.605469 210.996094 257.558594 213.148438 " fill-opacity="1" fill-rule="nonzero"/><path fill="#5479f7" d="M 297.359375 187.101562 C 297.308594 189.25 295.511719 191.085938 293.347656 191.199219 C 291.179688 191.3125 289.464844 189.660156 289.511719 187.515625 C 289.558594 185.363281 291.355469 183.53125 293.519531 183.417969 C 295.6875 183.304688 297.402344 184.953125 297.359375 187.101562 " fill-opacity="1" fill-rule="nonzero"/><path fill="#000000" d="M 297.355469 187.101562 L 297.359375 187.101562 Z M 293.734375 183.960938 C 293.671875 183.960938 293.609375 183.964844 293.550781 183.964844 C 291.664062 184.066406 290.101562 185.664062 290.058594 187.527344 C 290.039062 188.40625 290.363281 189.210938 290.96875 189.796875 C 291.582031 190.394531 292.417969 190.699219 293.316406 190.648438 C 295.199219 190.550781 296.765625 188.957031 296.808594 187.089844 C 296.824219 186.210938 296.503906 185.40625 295.898438 184.816406 C 295.324219 184.261719 294.5625 183.960938 293.734375 183.960938 Z M 293.132812 191.753906 C 292.019531 191.753906 290.984375 191.34375 290.203125 190.589844 C 289.375 189.785156 288.933594 188.6875 288.964844 187.503906 C 289.015625 185.074219 291.046875 182.996094 293.492188 182.871094 C 294.699219 182.804688 295.828125 183.21875 296.664062 184.03125 C 297.492188 184.832031 297.933594 185.929688 297.90625 187.113281 C 297.851562 189.542969 295.820312 191.617188 293.375 191.75 C 293.292969 191.75 293.214844 191.753906 293.132812 191.753906 " fill-opacity="1" fill-rule="nonzero"/><path fill="#ffffff" d="M 297.71875 31.207031 L 207.0625 31.207031 C 203.523438 31.207031 200.65625 34.074219 200.65625 37.609375 L 200.65625 137.609375 C 200.65625 141.144531 203.523438 144.011719 207.0625 144.011719 L 297.71875 144.011719 C 301.257812 144.011719 304.125 141.144531 304.125 137.609375 L 304.125 37.609375 C 304.125 34.074219 301.257812 31.207031 297.71875 31.207031 " fill-opacity="1" fill-rule="nonzero"/><path fill="#000000" d="M 207.0625 31.757812 C 203.832031 31.757812 201.207031 34.382812 201.207031 37.609375 L 201.207031 137.605469 C 201.207031 140.835938 203.832031 143.460938 207.0625 143.460938 L 297.722656 143.460938 C 300.949219 143.460938 303.574219 140.835938 303.574219 137.605469 L 303.574219 37.609375 C 303.574219 34.382812 300.949219 31.757812 297.722656 31.757812 Z M 297.722656 144.558594 L 207.0625 144.558594 C 203.226562 144.558594 200.109375 141.4375 200.109375 137.605469 L 200.109375 37.609375 C 200.109375 33.777344 203.226562 30.65625 207.0625 30.65625 L 297.722656 30.65625 C 301.554688 30.65625 304.675781 33.777344 304.675781 37.609375 L 304.675781 137.605469 C 304.675781 141.4375 301.554688 144.558594 297.722656 144.558594 " fill-opacity="1" fill-rule="nonzero"/><path fill="#000000" d="M 299.117188 42.265625 L 205.746094 42.265625 C 205.445312 42.265625 205.199219 42.019531 205.199219 41.714844 C 205.199219 41.410156 205.445312 41.167969 205.746094 41.167969 L 299.117188 41.167969 C 299.417969 41.167969 299.667969 41.410156 299.667969 41.714844 C 299.667969 42.019531 299.417969 42.265625 299.117188 42.265625 " fill-opacity="1" fill-rule="nonzero"/><path fill="#99b9ff" d="M 209.035156 36.132812 C 209.035156 37.039062 208.296875 37.777344 207.390625 37.777344 C 206.484375 37.777344 205.746094 37.039062 205.746094 36.132812 C 205.746094 35.226562 206.484375 34.492188 207.390625 34.492188 C 208.296875 34.492188 209.035156 35.226562 209.035156 36.132812 " fill-opacity="1" fill-rule="nonzero"/><path fill="#99b9ff" d="M 215.601562 36.132812 C 215.601562 37.039062 214.863281 37.777344 213.960938 37.777344 C 213.050781 37.777344 212.316406 37.039062 212.316406 36.132812 C 212.316406 35.226562 213.050781 34.492188 213.960938 34.492188 C 214.863281 34.492188 215.601562 35.226562 215.601562 36.132812 " fill-opacity="1" fill-rule="nonzero"/><path fill="#99b9ff" d="M 222.171875 36.132812 C 222.171875 37.039062 221.4375 37.777344 220.527344 37.777344 C 219.621094 37.777344 218.886719 37.039062 218.886719 36.132812 C 218.886719 35.226562 219.621094 34.492188 220.527344 34.492188 C 221.4375 34.492188 222.171875 35.226562 222.171875 36.132812 " fill-opacity="1" fill-rule="nonzero"/><path fill="#000000" d="M 299.117188 36.683594 L 289.863281 36.683594 C 289.5625 36.683594 289.316406 36.4375 289.316406 36.132812 C 289.316406 35.832031 289.5625 35.585938 289.863281 35.585938 L 299.117188 35.585938 C 299.421875 35.585938 299.664062 35.832031 299.664062 36.132812 C 299.664062 36.4375 299.421875 36.683594 299.117188 36.683594 " fill-opacity="1" fill-rule="nonzero"/><path fill="#000000" d="M 285.703125 36.683594 L 247.382812 36.683594 C 247.078125 36.683594 246.832031 36.4375 246.832031 36.132812 C 246.832031 35.832031 247.078125 35.585938 247.382812 35.585938 L 285.703125 35.585938 C 286.007812 35.585938 286.253906 35.832031 286.253906 36.132812 C 286.253906 36.4375 286.007812 36.683594 285.703125 36.683594 " fill-opacity="1" fill-rule="nonzero"/><path fill="#000000" d="M 237.308594 36.683594 L 229.152344 36.683594 C 228.847656 36.683594 228.601562 36.4375 228.601562 36.132812 C 228.601562 35.832031 228.847656 35.585938 229.152344 35.585938 L 237.308594 35.585938 C 237.609375 35.585938 237.859375 35.832031 237.859375 36.132812 C 237.859375 36.4375 237.609375 36.683594 237.308594 36.683594 " fill-opacity="1" fill-rule="nonzero"/><path fill="#99b9ff" d="M 236.695312 84.710938 C 239.679688 79.488281 245.234375 75.800781 251.6875 75.132812 L 252.136719 49.609375 C 233.59375 49.671875 217.234375 60.113281 209.78125 75.550781 L 236.695312 84.710938 " fill-opacity="1" fill-rule="nonzero"/><path fill="#000000" d="M 210.546875 75.234375 L 236.445312 84.046875 C 239.550781 78.90625 244.988281 75.429688 251.144531 74.644531 L 251.574219 50.164062 C 234.066406 50.429688 218.078125 60.199219 210.546875 75.234375 Z M 236.691406 85.261719 C 236.632812 85.261719 236.574219 85.253906 236.511719 85.234375 L 209.605469 76.070312 C 209.453125 76.019531 209.335938 75.90625 209.273438 75.761719 C 209.210938 75.617188 209.21875 75.453125 209.285156 75.3125 C 216.957031 59.429688 233.773438 49.125 252.132812 49.0625 C 252.28125 49.0625 252.425781 49.121094 252.527344 49.226562 C 252.628906 49.332031 252.6875 49.472656 252.683594 49.621094 L 252.234375 75.144531 C 252.230469 75.425781 252.019531 75.652344 251.742188 75.683594 C 245.582031 76.320312 240.132812 79.796875 237.167969 84.984375 C 237.066406 85.160156 236.882812 85.261719 236.691406 85.261719 " fill-opacity="1" fill-rule="nonzero"/><path fill="#000000" d="M 235.425781 57.097656 C 235.210938 57.097656 235.003906 56.96875 234.914062 56.753906 C 234.800781 56.472656 234.941406 56.152344 235.222656 56.039062 C 239.414062 54.339844 243.835938 53.28125 248.359375 52.890625 C 248.660156 52.863281 248.929688 53.089844 248.953125 53.390625 C 248.980469 53.695312 248.757812 53.957031 248.453125 53.984375 C 244.039062 54.367188 239.726562 55.402344 235.632812 57.058594 C 235.566406 57.085938 235.496094 57.097656 235.425781 57.097656 " fill-opacity="1" fill-rule="nonzero"/><path fill="#000000" d="M 220.65625 66.941406 C 220.515625 66.941406 220.378906 66.886719 220.273438 66.785156 C 220.054688 66.570312 220.050781 66.222656 220.265625 66.007812 C 223.429688 62.773438 227.105469 60.050781 231.1875 57.90625 C 231.453125 57.765625 231.785156 57.871094 231.925781 58.140625 C 232.070312 58.40625 231.964844 58.742188 231.695312 58.878906 C 227.71875 60.96875 224.132812 63.625 221.050781 66.777344 C 220.941406 66.886719 220.796875 66.941406 220.65625 66.941406 " fill-opacity="1" fill-rule="nonzero"/><path fill="#99b9ff" d="M 272.457031 96.023438 C 270.9375 104.410156 263.296875 111.003906 253.933594 111.296875 C 251.140625 111.382812 248.476562 110.898438 246.054688 109.957031 L 231.441406 132.578125 C 238.234375 135.640625 245.90625 137.144531 253.933594 136.683594 C 277.277344 135.34375 295.628906 117.777344 297.667969 96.628906 L 272.457031 96.023438 " fill-opacity="1" fill-rule="nonzero"/><path fill="#000000" d="M 232.25 132.335938 C 238.960938 135.25 246.433594 136.5625 253.902344 136.136719 C 276.28125 134.851562 294.726562 118.144531 297.058594 97.164062 L 272.910156 96.585938 C 271.117188 105.167969 263.222656 111.554688 253.949219 111.84375 C 251.296875 111.929688 248.714844 111.519531 246.273438 110.628906 Z M 251.132812 137.3125 C 244.226562 137.3125 237.394531 135.867188 231.214844 133.078125 C 231.070312 133.011719 230.957031 132.886719 230.910156 132.734375 C 230.867188 132.578125 230.890625 132.414062 230.976562 132.28125 L 245.59375 109.660156 C 245.734375 109.441406 246.007812 109.351562 246.253906 109.445312 C 248.679688 110.390625 251.257812 110.828125 253.917969 110.746094 C 262.839844 110.46875 270.410156 104.238281 271.914062 95.925781 C 271.964844 95.660156 272.195312 95.472656 272.472656 95.476562 L 297.679688 96.078125 C 297.832031 96.082031 297.976562 96.152344 298.078125 96.261719 C 298.179688 96.378906 298.226562 96.527344 298.214844 96.679688 C 296.113281 118.472656 277.089844 135.902344 253.964844 137.234375 C 253.019531 137.289062 252.074219 137.3125 251.132812 137.3125 " fill-opacity="1" fill-rule="nonzero"/><path fill="#000000" d="M 251.085938 133.652344 C 246.148438 133.652344 241.332031 132.875 236.765625 131.332031 C 236.476562 131.234375 236.324219 130.921875 236.417969 130.636719 C 236.515625 130.347656 236.828125 130.195312 237.113281 130.292969 C 241.570312 131.792969 246.269531 132.554688 251.085938 132.554688 C 251.953125 132.554688 252.828125 132.53125 253.691406 132.480469 C 253.996094 132.460938 254.253906 132.695312 254.273438 132.996094 C 254.289062 133.300781 254.058594 133.558594 253.757812 133.578125 C 252.871094 133.628906 251.972656 133.652344 251.085938 133.652344 " fill-opacity="1" fill-rule="nonzero"/><path fill="#000000" d="M 262.953125 132.074219 C 262.710938 132.074219 262.488281 131.914062 262.421875 131.671875 C 262.34375 131.378906 262.515625 131.074219 262.808594 130.996094 C 278.101562 126.824219 289.914062 114.691406 292.898438 100.078125 C 292.957031 99.78125 293.246094 99.589844 293.546875 99.652344 C 293.84375 99.710938 294.035156 100 293.976562 100.296875 C 290.90625 115.3125 278.789062 127.777344 263.097656 132.054688 C 263.046875 132.066406 263 132.074219 262.953125 132.074219 " fill-opacity="1" fill-rule="nonzero"/><path fill="#99b9ff" d="M 226.867188 130.199219 L 241.617188 107.507812 C 237.207031 104.246094 234.367188 99.164062 234.367188 93.398438 C 234.367188 92.007812 234.535156 90.648438 234.847656 89.34375 L 207.835938 80.289062 C 206.386719 84.542969 205.601562 89.066406 205.601562 93.753906 C 205.601562 109.269531 214.121094 122.632812 226.867188 130.199219 " fill-opacity="1" fill-rule="nonzero"/><path fill="#000000" d="M 208.183594 80.984375 C 206.832031 85.117188 206.152344 89.40625 206.152344 93.753906 C 206.152344 108.308594 213.820312 121.613281 226.695312 129.453125 L 240.875 107.636719 C 236.386719 104.128906 233.816406 98.96875 233.816406 93.402344 C 233.816406 92.160156 233.949219 90.917969 234.203125 89.707031 Z M 226.867188 130.746094 C 226.769531 130.746094 226.675781 130.722656 226.585938 130.671875 C 213.101562 122.671875 205.050781 108.867188 205.050781 93.753906 C 205.050781 89.101562 205.8125 84.515625 207.316406 80.113281 C 207.414062 79.828125 207.722656 79.671875 208.011719 79.769531 L 235.023438 88.820312 C 235.296875 88.910156 235.453125 89.195312 235.386719 89.472656 C 235.074219 90.757812 234.917969 92.078125 234.917969 93.402344 C 234.917969 98.78125 237.476562 103.765625 241.941406 107.070312 C 242.175781 107.242188 242.234375 107.566406 242.074219 107.808594 L 227.328125 130.496094 C 227.222656 130.65625 227.046875 130.746094 226.867188 130.746094 " fill-opacity="1" fill-rule="nonzero"/><path fill="#99b9ff" d="M 260.0625 74.171875 C 268.585938 75.4375 275.140625 82.042969 275.921875 90.207031 L 317.148438 91.402344 C 317.148438 91.382812 317.148438 91.363281 317.148438 91.347656 C 317.148438 61.117188 293.050781 35.242188 260.800781 31.914062 L 260.0625 74.171875 " fill-opacity="1" fill-rule="nonzero"/><path fill="#000000" d="M 276.417969 89.671875 L 316.59375 90.835938 C 316.324219 60.96875 292.703125 36.042969 261.339844 32.523438 L 260.621094 73.703125 C 269.027344 75.15625 275.425781 81.625 276.417969 89.671875 Z M 317.140625 91.949219 C 317.136719 91.949219 317.132812 91.949219 317.128906 91.949219 L 275.90625 90.753906 C 275.628906 90.746094 275.402344 90.535156 275.375 90.257812 C 274.621094 82.339844 268.292969 75.949219 259.980469 74.714844 C 259.707031 74.671875 259.507812 74.433594 259.511719 74.160156 L 260.253906 31.902344 C 260.253906 31.75 260.320312 31.605469 260.4375 31.5 C 260.550781 31.398438 260.703125 31.351562 260.855469 31.367188 C 276.53125 32.984375 290.953125 40.015625 301.464844 51.167969 C 311.933594 62.265625 317.695312 76.535156 317.695312 91.347656 C 317.695312 91.496094 317.636719 91.664062 317.53125 91.765625 C 317.425781 91.867188 317.285156 91.949219 317.140625 91.949219 " fill-opacity="1" fill-rule="nonzero"/><path fill="#ffffff" d="M 213.84375 75.203125 L 159.890625 75.203125 C 157.230469 75.203125 155.074219 77.359375 155.074219 80.015625 L 155.074219 151.683594 C 155.074219 154.339844 157.230469 156.496094 159.890625 156.496094 L 213.84375 156.496094 C 216.5 156.496094 218.65625 154.339844 218.65625 151.683594 L 218.65625 80.015625 C 218.65625 77.359375 216.5 75.203125 213.84375 75.203125 " fill-opacity="1" fill-rule="nonzero"/><path fill="#caddff" d="M 176.484375 143.9375 L 162.636719 143.9375 L 162.636719 98.433594 L 176.484375 98.433594 L 176.484375 143.9375 " fill-opacity="1" fill-rule="nonzero"/><path fill="#caddff" d="M 193.792969 143.933594 L 179.941406 143.933594 L 179.941406 85.878906 L 193.792969 85.878906 L 193.792969 143.933594 " fill-opacity="1" fill-rule="nonzero"/><path fill="#caddff" d="M 211.101562 143.9375 L 197.25 143.9375 L 197.25 116.8125 L 211.101562 116.8125 L 211.101562 143.9375 " fill-opacity="1" fill-rule="nonzero"/><path fill="#000000" d="M 165.261719 126.214844 C 164.957031 126.214844 164.710938 125.96875 164.710938 125.667969 L 164.710938 96.894531 C 164.710938 96.589844 164.957031 96.34375 165.261719 96.34375 L 179.109375 96.34375 C 179.417969 96.34375 179.660156 96.589844 179.660156 96.894531 L 179.660156 109.914062 C 179.660156 110.214844 179.417969 110.460938 179.109375 110.460938 C 178.808594 110.460938 178.5625 110.214844 178.5625 109.914062 L 178.5625 97.445312 L 165.808594 97.445312 L 165.808594 125.667969 C 165.808594 125.96875 165.566406 126.214844 165.261719 126.214844 " fill-opacity="1" fill-rule="nonzero"/><path fill="#000000" d="M 196.417969 136.039062 C 196.113281 136.039062 195.867188 135.792969 195.867188 135.488281 L 195.867188 84.890625 L 183.117188 84.890625 L 183.117188 125.785156 C 183.117188 126.085938 182.871094 126.332031 182.566406 126.332031 C 182.261719 126.332031 182.015625 126.085938 182.015625 125.785156 L 182.015625 84.339844 C 182.015625 84.035156 182.261719 83.789062 182.566406 83.789062 L 196.417969 83.789062 C 196.71875 83.789062 196.964844 84.035156 196.964844 84.339844 L 196.964844 135.488281 C 196.964844 135.792969 196.71875 136.039062 196.417969 136.039062 " fill-opacity="1" fill-rule="nonzero"/><path fill="#000000" d="M 199.875 138.09375 C 199.570312 138.09375 199.324219 137.847656 199.324219 137.542969 L 199.324219 115.269531 C 199.324219 114.96875 199.570312 114.722656 199.875 114.722656 L 213.726562 114.722656 C 214.027344 114.722656 214.273438 114.96875 214.273438 115.269531 L 214.273438 130.921875 C 214.273438 131.222656 214.027344 131.46875 213.726562 131.46875 C 213.421875 131.46875 213.175781 131.222656 213.175781 130.921875 L 213.175781 115.820312 L 200.425781 115.820312 L 200.425781 137.542969 C 200.425781 137.847656 200.179688 138.09375 199.875 138.09375 " fill-opacity="1" fill-rule="nonzero"/><path fill="#000000" d="M 177.4375 157.164062 C 177.136719 157.164062 176.890625 156.917969 176.890625 156.617188 C 176.886719 156.316406 177.132812 156.066406 177.4375 156.066406 L 213.839844 155.945312 C 216.195312 155.945312 218.109375 154.03125 218.109375 151.683594 L 218.109375 80.015625 C 218.109375 77.664062 216.195312 75.753906 213.84375 75.753906 L 159.890625 75.753906 C 157.539062 75.753906 155.625 77.664062 155.625 80.015625 L 155.625 151.683594 C 155.625 154.03125 157.539062 155.945312 159.890625 155.945312 L 160.402344 155.945312 C 160.707031 155.945312 160.953125 156.191406 160.953125 156.496094 C 160.953125 156.800781 160.707031 157.046875 160.402344 157.046875 L 159.890625 157.046875 C 156.933594 157.046875 154.527344 154.640625 154.527344 151.683594 L 154.527344 80.015625 C 154.527344 77.058594 156.933594 74.652344 159.890625 74.652344 L 213.84375 74.652344 C 216.800781 74.652344 219.207031 77.058594 219.207031 80.015625 L 219.207031 151.683594 C 219.207031 154.640625 216.800781 157.046875 213.84375 157.046875 L 177.441406 157.164062 L 177.4375 157.164062 " fill-opacity="1" fill-rule="nonzero"/><path fill="#ffffff" d="M 86.234375 302.652344 L 87.109375 310.957031 L 92.722656 311.613281 L 92.722656 301.769531 L 86.234375 302.652344 " fill-opacity="1" fill-rule="nonzero"/><path fill="#000000" d="M 87.609375 310.460938 L 92.175781 310.996094 L 92.175781 302.398438 L 86.839844 303.125 Z M 92.722656 312.164062 C 92.703125 312.164062 92.679688 312.164062 92.660156 312.160156 L 87.042969 311.5 C 86.789062 311.472656 86.585938 311.269531 86.5625 311.011719 L 85.691406 302.710938 C 85.660156 302.414062 85.867188 302.148438 86.160156 302.109375 L 92.648438 301.222656 C 92.808594 301.203125 92.964844 301.25 93.085938 301.355469 C 93.203125 301.460938 93.273438 301.609375 93.273438 301.769531 L 93.273438 311.613281 C 93.273438 311.769531 93.207031 311.917969 93.089844 312.023438 C 92.988281 312.113281 92.859375 312.164062 92.722656 312.164062 " fill-opacity="1" fill-rule="nonzero"/><path fill="#99b9ff" d="M 93.609375 326.070312 C 91.265625 326.398438 87.429688 326.6875 82.925781 326.0625 C 81.449219 325.859375 80.46875 324.429688 80.824219 322.980469 C 81.816406 318.949219 83.527344 311.304688 86.460938 307.761719 L 87.1875 309.683594 L 88.195312 307.871094 C 88.332031 307.625 88.582031 307.457031 88.863281 307.421875 L 91.066406 307.140625 C 91.527344 307.082031 91.957031 307.386719 92.050781 307.84375 L 92.402344 309.507812 L 93.171875 307.320312 L 95.734375 323.257812 C 95.914062 324.621094 94.96875 325.878906 93.609375 326.070312 " fill-opacity="1" fill-rule="nonzero"/><path fill="#000000" d="M 86.300781 308.894531 C 83.984375 312.328125 82.492188 318.460938 81.570312 322.242188 L 81.359375 323.113281 C 81.226562 323.65625 81.324219 324.210938 81.640625 324.675781 C 81.953125 325.136719 82.449219 325.445312 83 325.519531 C 87.402344 326.128906 91.15625 325.859375 93.53125 325.523438 C 94.585938 325.375 95.332031 324.390625 95.191406 323.332031 L 92.972656 309.542969 L 92.921875 309.691406 C 92.839844 309.925781 92.609375 310.070312 92.367188 310.058594 C 92.121094 310.042969 91.914062 309.863281 91.863281 309.621094 L 91.511719 307.957031 C 91.476562 307.78125 91.3125 307.664062 91.136719 307.6875 L 88.929688 307.96875 C 88.824219 307.980469 88.726562 308.046875 88.675781 308.140625 L 87.667969 309.949219 C 87.566406 310.136719 87.363281 310.246094 87.148438 310.230469 C 86.933594 310.214844 86.75 310.078125 86.675781 309.875 Z M 93.609375 326.070312 L 93.613281 326.070312 Z M 88.300781 326.980469 C 86.648438 326.980469 84.8125 326.878906 82.847656 326.609375 C 81.988281 326.488281 81.214844 326.007812 80.730469 325.292969 C 80.246094 324.578125 80.085938 323.6875 80.292969 322.851562 L 80.503906 321.980469 C 81.519531 317.804688 83.222656 310.808594 86.035156 307.410156 C 86.160156 307.261719 86.355469 307.1875 86.550781 307.21875 C 86.742188 307.25 86.90625 307.382812 86.972656 307.566406 L 87.285156 308.382812 L 87.714844 307.605469 C 87.9375 307.207031 88.339844 306.933594 88.792969 306.875 L 90.996094 306.597656 C 91.660156 306.515625 92.289062 306.902344 92.523438 307.507812 L 92.652344 307.140625 C 92.734375 306.902344 92.96875 306.753906 93.21875 306.773438 C 93.46875 306.796875 93.671875 306.984375 93.714844 307.234375 L 96.277344 323.171875 C 96.5 324.84375 95.335938 326.378906 93.683594 326.613281 C 92.300781 326.808594 90.457031 326.980469 88.300781 326.980469 " fill-opacity="1" fill-rule="nonzero"/><path fill="#000000" d="M 87.101562 324.308594 C 85.589844 324.308594 83.953125 324.175781 82.320312 323.804688 C 82.023438 323.738281 81.839844 323.441406 81.90625 323.144531 C 81.972656 322.851562 82.265625 322.664062 82.5625 322.734375 C 88.011719 323.972656 93.714844 322.378906 93.769531 322.363281 C 94.0625 322.277344 94.367188 322.445312 94.449219 322.738281 C 94.535156 323.03125 94.363281 323.332031 94.074219 323.417969 C 93.898438 323.46875 90.890625 324.308594 87.101562 324.308594 " fill-opacity="1" fill-rule="nonzero"/><path fill="#000000" d="M 85.761719 318.136719 C 85.464844 318.136719 85.222656 317.902344 85.210938 317.605469 C 85.203125 317.300781 85.441406 317.046875 85.742188 317.035156 L 91.007812 316.863281 C 91.015625 316.863281 91.019531 316.863281 91.027344 316.863281 C 91.320312 316.863281 91.566406 317.097656 91.574219 317.394531 C 91.585938 317.699219 91.347656 317.953125 91.042969 317.960938 L 85.78125 318.136719 C 85.773438 318.136719 85.765625 318.136719 85.761719 318.136719 " fill-opacity="1" fill-rule="nonzero"/><path fill="#ffffff" d="M 112.539062 298.230469 L 113.382812 310.347656 L 120.140625 310.347656 L 120.453125 298.230469 L 112.539062 298.230469 " fill-opacity="1" fill-rule="nonzero"/><path fill="#000000" d="M 113.894531 309.800781 L 119.605469 309.800781 L 119.890625 298.78125 L 113.128906 298.78125 Z M 120.140625 310.898438 L 113.382812 310.898438 C 113.09375 310.898438 112.851562 310.675781 112.832031 310.386719 L 111.992188 298.269531 C 111.980469 298.117188 112.035156 297.96875 112.136719 297.855469 C 112.242188 297.746094 112.386719 297.683594 112.539062 297.683594 L 120.453125 297.683594 C 120.601562 297.683594 120.742188 297.742188 120.847656 297.847656 C 120.949219 297.953125 121.007812 298.097656 121.003906 298.246094 L 120.6875 310.363281 C 120.679688 310.660156 120.4375 310.898438 120.140625 310.898438 " fill-opacity="1" fill-rule="nonzero"/><path fill="#99b9ff" d="M 111.617188 317.1875 C 111.597656 318.335938 112.382812 319.339844 113.5 319.601562 C 117.382812 320.503906 126.136719 322.519531 128.632812 322.886719 C 131.871094 323.371094 135.851562 322.378906 137.5625 320.484375 C 139.277344 318.589844 133.730469 314.066406 131.101562 312.421875 C 127.191406 309.976562 123.433594 305.144531 121.859375 304.925781 C 120.285156 304.707031 117.34375 309.277344 117.34375 309.277344 L 112.539062 307.257812 C 112.539062 307.257812 111.703125 311.375 111.617188 317.1875 " fill-opacity="1" fill-rule="nonzero"/><path fill="#000000" d="M 111.617188 317.1875 L 111.621094 317.1875 Z M 112.960938 308.03125 C 112.726562 309.414062 112.230469 312.835938 112.164062 317.195312 C 112.152344 318.082031 112.765625 318.867188 113.625 319.066406 C 117.332031 319.929688 126.226562 321.976562 128.710938 322.347656 C 131.839844 322.8125 135.625 321.8125 137.15625 320.117188 C 137.253906 320.007812 137.375 319.828125 137.324219 319.464844 C 137.074219 317.675781 133.378906 314.496094 130.808594 312.886719 C 128.8125 311.636719 126.914062 309.835938 125.238281 308.25 C 123.84375 306.925781 122.398438 305.554688 121.785156 305.472656 C 121.046875 305.367188 119.136719 307.511719 117.808594 309.574219 C 117.664062 309.800781 117.378906 309.886719 117.132812 309.785156 Z M 130.316406 323.558594 C 129.71875 323.558594 129.125 323.519531 128.550781 323.433594 C 126.117188 323.070312 117.996094 321.214844 113.375 320.136719 C 112.015625 319.820312 111.046875 318.578125 111.066406 317.183594 C 111.152344 311.382812 111.992188 307.191406 112 307.148438 C 112.035156 306.988281 112.136719 306.847656 112.28125 306.773438 C 112.429688 306.695312 112.601562 306.6875 112.753906 306.75 L 117.136719 308.59375 C 118.089844 307.175781 120.320312 304.160156 121.933594 304.382812 C 122.855469 304.507812 124.019531 305.574219 125.996094 307.453125 C 127.632812 309.003906 129.488281 310.765625 131.390625 311.953125 C 133.097656 313.019531 138.046875 316.660156 138.414062 319.3125 C 138.496094 319.90625 138.34375 320.441406 137.972656 320.855469 C 136.488281 322.5 133.351562 323.558594 130.316406 323.558594 " fill-opacity="1" fill-rule="nonzero"/><path fill="#000000" d="M 130.261719 321.328125 C 123.164062 321.328125 113.707031 317.511719 113.171875 317.292969 C 112.890625 317.175781 112.757812 316.855469 112.871094 316.574219 C 112.988281 316.292969 113.308594 316.160156 113.589844 316.273438 C 113.761719 316.34375 130.738281 323.203125 135.667969 318.753906 C 135.894531 318.550781 136.242188 318.566406 136.445312 318.792969 C 136.648438 319.019531 136.628906 319.367188 136.40625 319.570312 C 134.984375 320.851562 132.769531 321.328125 130.261719 321.328125 " fill-opacity="1" fill-rule="nonzero"/><path fill="#000000" d="M 122.769531 313.996094 C 122.617188 313.996094 122.46875 313.9375 122.359375 313.816406 C 122.15625 313.589844 122.175781 313.242188 122.402344 313.039062 L 125.839844 309.941406 C 126.0625 309.738281 126.410156 309.753906 126.613281 309.980469 C 126.816406 310.207031 126.800781 310.554688 126.574219 310.757812 L 123.136719 313.855469 C 123.03125 313.949219 122.898438 313.996094 122.769531 313.996094 " fill-opacity="1" fill-rule="nonzero"/><path fill="#000000" d="M 84.320312 219.238281 C 84.320312 219.238281 82.226562 257.117188 81.128906 270.195312 C 80.035156 283.273438 83.691406 304.289062 83.691406 304.289062 L 94.121094 303.742188 C 94.121094 303.742188 94.839844 278.1875 95.613281 271.089844 C 95.613281 271.089844 100.019531 261.46875 101.324219 252.886719 C 102.628906 244.304688 107.078125 230.753906 107.078125 230.753906 C 107.078125 230.753906 110.691406 298.402344 111.039062 303.714844 C 111.039062 303.714844 119.21875 304.078125 122.152344 302.234375 C 122.152344 302.234375 127.347656 277.566406 126.601562 264.148438 C 125.855469 250.726562 126.675781 217.382812 126.675781 217.382812 L 84.320312 219.238281 " fill-opacity="1" fill-rule="nonzero"/><path fill="#ffffff" d="M 93.691406 271.636719 L 90.503906 271.636719 C 90.199219 271.636719 89.953125 271.390625 89.953125 271.085938 C 89.953125 270.785156 90.199219 270.539062 90.503906 270.539062 L 93.691406 270.539062 C 93.996094 270.539062 94.242188 270.785156 94.242188 271.085938 C 94.242188 271.390625 93.996094 271.636719 93.691406 271.636719 " fill-opacity="1" fill-rule="nonzero"/><path fill="#ffffff" d="M 116.402344 291.3125 C 116.402344 291.3125 116.398438 291.3125 116.394531 291.3125 C 116.089844 291.304688 115.847656 291.054688 115.855469 290.75 C 115.96875 284.4375 122.867188 273.171875 123.160156 272.695312 C 123.320312 272.4375 123.660156 272.359375 123.917969 272.515625 C 124.175781 272.675781 124.253906 273.015625 124.097656 273.273438 C 124.027344 273.386719 117.0625 284.757812 116.953125 290.769531 C 116.949219 291.070312 116.703125 291.3125 116.402344 291.3125 " fill-opacity="1" fill-rule="nonzero"/><path fill="#ffffff" d="M 129.976562 158.660156 C 130.734375 158.601562 134.460938 166.230469 146.125 165.910156 C 157.789062 165.589844 167.148438 152.542969 167.148438 152.542969 C 167.148438 152.542969 171.175781 145.753906 174.234375 143.296875 C 177.292969 140.84375 177.769531 140.519531 177.769531 140.519531 C 177.769531 140.519531 178.726562 141.792969 177.769531 143.296875 C 176.8125 144.800781 174.164062 147.609375 174.164062 147.609375 C 174.164062 147.609375 177.082031 149.210938 175.765625 152.542969 C 174.253906 156.375 169.992188 156.066406 169.992188 156.066406 C 169.992188 156.066406 161.34375 194.34375 125.605469 176.15625 L 129.976562 158.660156 " fill-opacity="1" fill-rule="nonzero"/><path fill="#000000" d="M 126.242188 175.863281 C 136.59375 181.039062 145.609375 181.894531 153.046875 178.40625 C 165.582031 172.523438 169.417969 156.113281 169.457031 155.945312 C 169.515625 155.679688 169.757812 155.5 170.03125 155.519531 C 170.1875 155.53125 173.914062 155.742188 175.253906 152.339844 C 176.371094 149.511719 174 148.148438 173.898438 148.089844 C 173.75 148.007812 173.648438 147.863281 173.621094 147.695312 C 173.597656 147.527344 173.648438 147.359375 173.765625 147.234375 C 173.789062 147.207031 176.386719 144.441406 177.304688 143.003906 C 177.722656 142.347656 177.683594 141.753906 177.566406 141.359375 C 177.089844 141.726562 176.199219 142.421875 174.578125 143.726562 C 171.632812 146.089844 167.660156 152.753906 167.621094 152.824219 C 167.613281 152.835938 167.601562 152.851562 167.59375 152.863281 C 167.207031 153.40625 157.941406 166.136719 146.140625 166.460938 C 136.636719 166.726562 132.308594 161.898438 130.460938 159.835938 C 130.40625 159.777344 130.351562 159.710938 130.292969 159.652344 Z M 143.328125 181.609375 C 137.863281 181.609375 131.855469 179.953125 125.355469 176.644531 C 125.125 176.53125 125.007812 176.273438 125.070312 176.023438 L 129.441406 158.527344 C 129.5 158.296875 129.695312 158.128906 129.933594 158.113281 C 130.359375 158.074219 130.648438 158.398438 131.28125 159.105469 C 133.027344 161.050781 137.117188 165.597656 146.113281 165.363281 C 157.179688 165.058594 166.289062 152.785156 166.6875 152.238281 C 166.988281 151.738281 170.847656 145.3125 173.890625 142.867188 C 176.929688 140.429688 177.441406 140.078125 177.460938 140.0625 C 177.707031 139.898438 178.03125 139.953125 178.210938 140.1875 C 178.257812 140.253906 179.382812 141.789062 178.234375 143.59375 C 177.488281 144.761719 175.800781 146.644531 175 147.515625 C 176.089844 148.398438 177.277344 150.214844 176.277344 152.746094 C 174.945312 156.117188 171.644531 156.570312 170.421875 156.617188 C 169.710938 159.296875 165.367188 173.835938 153.511719 179.398438 C 150.371094 180.875 146.96875 181.609375 143.328125 181.609375 " fill-opacity="1" fill-rule="nonzero"/><path fill="#caddff" d="M 72.167969 176.15625 C 72.167969 176.15625 75.664062 153.570312 88.03125 148.011719 C 100.398438 142.457031 117.128906 143.230469 121.742188 146.003906 C 126.355469 148.777344 138.378906 161.328125 138.378906 161.328125 L 127.753906 176.15625 C 127.753906 176.15625 130.183594 216.078125 128.261719 226.613281 C 128.261719 226.613281 116.441406 227.992188 111.429688 226.019531 C 106.414062 224.042969 89.929688 221.28125 82.050781 224.898438 L 83.484375 174.359375 L 72.167969 176.15625 " fill-opacity="1" fill-rule="nonzero"/><path fill="#000000" d="M 92.757812 222.589844 C 100.273438 222.589844 108.378906 224.226562 111.628906 225.507812 C 115.941406 227.207031 125.679688 226.328125 127.792969 226.113281 C 129.550781 215.175781 127.230469 176.582031 127.207031 176.1875 C 127.199219 176.0625 127.234375 175.9375 127.308594 175.835938 L 137.667969 161.378906 C 135.738281 159.386719 125.542969 148.929688 121.457031 146.476562 C 117.152344 143.882812 100.566406 142.984375 88.257812 148.515625 C 77.558594 153.320312 73.582031 171.5625 72.839844 175.492188 L 83.398438 173.816406 C 83.558594 173.789062 83.722656 173.835938 83.847656 173.945312 C 83.96875 174.050781 84.039062 174.210938 84.03125 174.375 L 82.625 224.0625 C 85.402344 222.996094 89.007812 222.589844 92.757812 222.589844 Z M 119.933594 227.636719 C 116.765625 227.636719 113.40625 227.386719 111.226562 226.53125 C 106.0625 224.496094 89.769531 221.960938 82.28125 225.398438 C 82.109375 225.476562 81.90625 225.460938 81.75 225.359375 C 81.589844 225.253906 81.496094 225.074219 81.5 224.882812 L 82.914062 175.003906 L 72.25 176.699219 C 72.078125 176.726562 71.902344 176.667969 71.777344 176.542969 C 71.652344 176.421875 71.597656 176.246094 71.621094 176.074219 C 71.769531 175.136719 75.3125 153.125 87.808594 147.511719 C 100.058594 142.007812 117.011719 142.515625 122.023438 145.535156 C 126.648438 148.3125 138.285156 160.433594 138.777344 160.945312 C 138.960938 161.136719 138.980469 161.429688 138.828125 161.644531 L 128.3125 176.316406 C 128.515625 179.691406 130.664062 216.496094 128.804688 226.714844 C 128.761719 226.949219 128.566406 227.132812 128.328125 227.160156 C 128.046875 227.191406 124.160156 227.636719 119.933594 227.636719 " fill-opacity="1" fill-rule="nonzero"/><path fill="#000000" d="M 92.914062 215.03125 C 92.652344 215.03125 92.417969 214.84375 92.371094 214.578125 C 92.320312 214.28125 92.519531 213.996094 92.816406 213.941406 C 111.507812 210.640625 116.925781 197.753906 116.976562 197.621094 C 117.089844 197.339844 117.410156 197.207031 117.691406 197.320312 C 117.972656 197.433594 118.109375 197.753906 117.996094 198.035156 C 117.941406 198.171875 112.292969 211.617188 93.007812 215.023438 C 92.976562 215.03125 92.945312 215.03125 92.914062 215.03125 " fill-opacity="1" fill-rule="nonzero"/><path fill="#000000" d="M 126.859375 191.945312 L 102.796875 191.945312 L 110.332031 165.070312 L 134.398438 165.070312 L 126.859375 191.945312 " fill-opacity="1" fill-rule="nonzero"/><path fill="#ffffff" d="M 74.289062 176.242188 L 86.464844 170.800781 C 86.464844 170.800781 84.75 191.429688 109.390625 181.902344 C 109.390625 181.902344 108.480469 179.253906 108.609375 176.15625 C 108.738281 173.058594 110.59375 176.054688 110.851562 178.574219 C 111.109375 181.089844 116.894531 180.066406 120.371094 179.078125 C 123.847656 178.082031 128.414062 178.734375 120.371094 183.167969 C 112.332031 187.601562 110.570312 185.621094 110.570312 185.621094 C 110.570312 185.621094 100.304688 199.984375 87.53125 196.933594 C 71.816406 193.179688 74.289062 176.242188 74.289062 176.242188 " fill-opacity="1" fill-rule="nonzero"/><path fill="#000000" d="M 74.796875 176.617188 C 74.691406 177.644531 74.445312 181.21875 75.554688 185.066406 C 77.289062 191.082031 81.363281 194.894531 87.65625 196.402344 C 99.929688 199.332031 110.023438 185.445312 110.125 185.304688 C 110.222656 185.167969 110.375 185.082031 110.542969 185.074219 C 110.707031 185.070312 110.871094 185.132812 110.980469 185.257812 C 110.984375 185.257812 112.785156 186.722656 120.105469 182.6875 C 124.363281 180.339844 124.300781 179.476562 124.300781 179.46875 C 124.132812 179.199219 122.53125 179.03125 120.523438 179.601562 C 118.867188 180.074219 113.304688 181.503906 111.179688 180.066406 C 110.667969 179.722656 110.367188 179.222656 110.304688 178.628906 C 110.171875 177.320312 109.601562 176.039062 109.226562 175.558594 C 109.199219 175.691406 109.171875 175.890625 109.160156 176.179688 C 109.035156 179.136719 109.902344 181.699219 109.910156 181.726562 C 110.007812 182.003906 109.863281 182.308594 109.589844 182.417969 C 101.089844 185.703125 94.703125 185.816406 90.605469 182.753906 C 86.316406 179.542969 85.882812 173.871094 85.886719 171.660156 Z M 91.09375 197.902344 C 89.890625 197.902344 88.65625 197.769531 87.402344 197.46875 C 71.386719 193.640625 73.71875 176.339844 73.742188 176.164062 C 73.769531 175.976562 73.890625 175.816406 74.0625 175.742188 L 86.242188 170.300781 C 86.417969 170.21875 86.625 170.242188 86.785156 170.351562 C 86.941406 170.464844 87.03125 170.652344 87.015625 170.84375 C 87.007812 170.917969 86.464844 178.285156 91.269531 181.875 C 94.96875 184.640625 100.835938 184.535156 108.71875 181.574219 C 108.453125 180.636719 107.960938 178.523438 108.0625 176.132812 C 108.082031 175.683594 108.136719 174.316406 109.085938 174.285156 C 109.097656 174.285156 109.105469 174.285156 109.113281 174.285156 C 110.328125 174.285156 111.246094 177.03125 111.398438 178.515625 C 111.425781 178.789062 111.554688 178.992188 111.796875 179.15625 C 113.085938 180.027344 116.957031 179.476562 120.222656 178.546875 C 121.734375 178.117188 124.746094 177.667969 125.316406 179.054688 C 125.785156 180.191406 124.339844 181.605469 120.636719 183.648438 C 114.453125 187.058594 111.753906 186.785156 110.710938 186.347656 C 109.082031 188.4375 101.140625 197.902344 91.09375 197.902344 " fill-opacity="1" fill-rule="nonzero"/><path fill="#000000" d="M 106.796875 137.71875 C 105.742188 138.683594 103.6875 139.859375 102.078125 139.046875 C 100.878906 138.445312 100.210938 136.882812 100.25 135.089844 C 99.695312 135.136719 98.96875 135.097656 98.449219 134.636719 C 97.648438 133.929688 97.800781 132.632812 97.832031 131.777344 C 97.976562 127.835938 95.683594 127.234375 96.246094 124.558594 C 96.683594 122.457031 98.335938 121.203125 98.644531 120.96875 C 100.207031 119.789062 101.261719 120.171875 103.882812 119.484375 C 108.292969 118.328125 108.433594 116.429688 111.339844 116.417969 C 111.507812 116.417969 115.464844 116.460938 116.804688 119.191406 C 117.898438 121.414062 116.621094 124.117188 115.304688 125.53125 C 113.597656 127.371094 112.371094 126.460938 110.65625 128.003906 C 107.648438 130.707031 109.921875 134.859375 106.796875 137.71875 " fill-opacity="1" fill-rule="nonzero"/><path fill="#ffffff" d="M 115.597656 130.6875 L 115.425781 130.539062 C 114.550781 129.785156 113.644531 128.914062 113.410156 127.785156 C 112.425781 122.984375 108.03125 121.246094 107.828125 125.648438 C 107.777344 126.761719 103.714844 126.703125 104.199219 127.871094 C 105.453125 130.914062 105.480469 130.09375 103.710938 131.214844 C 103.507812 131.222656 103.308594 131.265625 103.121094 131.355469 C 102.210938 131.777344 101.890625 133.011719 102.402344 134.113281 C 102.710938 134.777344 103.261719 135.238281 103.84375 135.40625 L 103.84375 140.210938 C 103.84375 142.011719 102.753906 143.632812 101.085938 144.316406 L 99.464844 144.980469 C 99.464844 144.980469 107.03125 149.917969 114.714844 144.496094 L 113.691406 144.035156 C 111.886719 143.226562 110.699219 141.457031 110.636719 139.480469 L 110.628906 138.539062 C 111.144531 138.585938 111.644531 138.550781 112.109375 138.417969 C 114.257812 137.792969 114.96875 135.316406 114.605469 132.238281 L 115.480469 131.769531 C 115.886719 131.550781 115.949219 130.992188 115.597656 130.6875 " fill-opacity="1" fill-rule="nonzero"/><path fill="#000000" d="M 100.734375 145.054688 C 102.847656 146.085938 108.082031 147.949219 113.578125 144.585938 L 113.464844 144.539062 C 111.480469 143.648438 110.15625 141.667969 110.089844 139.496094 L 110.078125 138.542969 C 110.078125 138.390625 110.144531 138.242188 110.257812 138.136719 C 110.371094 138.03125 110.523438 137.980469 110.679688 137.992188 C 111.144531 138.035156 111.574219 138 111.953125 137.890625 C 114.371094 137.1875 114.230469 133.75 114.058594 132.304688 C 114.03125 132.082031 114.144531 131.863281 114.34375 131.753906 L 115.21875 131.285156 C 115.261719 131.261719 115.273438 131.226562 115.277344 131.199219 C 115.28125 131.171875 115.277344 131.136719 115.238281 131.105469 L 115.066406 130.953125 C 114.144531 130.160156 113.140625 129.207031 112.875 127.894531 C 112.289062 125.050781 110.511719 123.59375 109.5 123.671875 C 108.566406 123.742188 108.402344 125.097656 108.378906 125.675781 C 108.335938 126.605469 107.191406 126.925781 106.085938 127.234375 C 105.648438 127.355469 104.945312 127.554688 104.730469 127.722656 C 104.902344 128.132812 105.046875 128.46875 105.167969 128.75 C 105.769531 130.132812 105.972656 130.597656 104.746094 131.253906 C 104.546875 131.359375 104.300781 131.492188 104.003906 131.679688 C 103.921875 131.730469 103.828125 131.761719 103.730469 131.765625 C 103.59375 131.769531 103.46875 131.800781 103.351562 131.855469 C 102.71875 132.148438 102.515625 133.058594 102.898438 133.878906 C 103.128906 134.375 103.539062 134.746094 103.996094 134.875 C 104.230469 134.941406 104.394531 135.160156 104.394531 135.40625 L 104.394531 140.210938 C 104.394531 142.242188 103.179688 144.054688 101.296875 144.824219 Z M 106.953125 147.570312 C 102.503906 147.570312 99.214844 145.472656 99.164062 145.4375 C 98.992188 145.328125 98.898438 145.132812 98.917969 144.925781 C 98.9375 144.722656 99.066406 144.546875 99.253906 144.472656 L 100.878906 143.808594 C 102.347656 143.207031 103.296875 141.792969 103.296875 140.210938 L 103.296875 135.78125 C 102.703125 135.5 102.207031 134.992188 101.902344 134.34375 C 101.265625 132.972656 101.707031 131.40625 102.890625 130.859375 C 103.089844 130.761719 103.304688 130.703125 103.53125 130.679688 C 103.8125 130.507812 104.039062 130.386719 104.230469 130.285156 C 104.339844 130.226562 104.460938 130.160156 104.535156 130.113281 C 104.488281 129.9375 104.328125 129.574219 104.160156 129.1875 C 104.03125 128.886719 103.875 128.527344 103.691406 128.082031 C 103.578125 127.804688 103.582031 127.527344 103.703125 127.273438 C 103.996094 126.679688 104.824219 126.445312 105.789062 126.175781 C 106.261719 126.046875 107.128906 125.800781 107.28125 125.601562 C 107.414062 122.9375 108.949219 122.609375 109.414062 122.574219 C 111.066406 122.449219 113.269531 124.359375 113.949219 127.671875 C 114.148438 128.648438 115 129.445312 115.785156 130.121094 L 115.957031 130.269531 C 116.257812 130.53125 116.414062 130.925781 116.371094 131.320312 C 116.328125 131.714844 116.089844 132.066406 115.738281 132.253906 L 115.191406 132.546875 C 115.507812 135.988281 114.453125 138.308594 112.261719 138.945312 C 111.925781 139.042969 111.5625 139.097656 111.183594 139.105469 L 111.1875 139.476562 C 111.242188 141.21875 112.3125 142.816406 113.914062 143.535156 L 114.941406 143.996094 C 115.121094 144.074219 115.242188 144.246094 115.261719 144.441406 C 115.28125 144.640625 115.195312 144.832031 115.03125 144.945312 C 112.222656 146.929688 109.410156 147.570312 106.953125 147.570312 " fill-opacity="1" fill-rule="nonzero"/><path fill="#000000" d="M 110.628906 139.089844 C 110.601562 139.089844 110.574219 139.085938 110.546875 139.082031 C 107.339844 138.589844 105.890625 136.132812 105.832031 136.03125 C 105.679688 135.765625 105.769531 135.429688 106.035156 135.28125 C 106.296875 135.128906 106.632812 135.21875 106.785156 135.480469 C 106.800781 135.515625 108.050781 137.589844 110.710938 137.996094 C 111.011719 138.042969 111.21875 138.324219 111.171875 138.625 C 111.128906 138.894531 110.894531 139.089844 110.628906 139.089844 " fill-opacity="1" fill-rule="nonzero"/><path fill="#000000" d="M 197.574219 302.160156 C 197.308594 302.160156 197.074219 301.96875 197.03125 301.695312 C 196.984375 301.394531 197.191406 301.113281 197.492188 301.066406 C 197.835938 301.015625 231.992188 295.503906 255.414062 272.628906 C 255.632812 272.414062 255.980469 272.417969 256.191406 272.636719 C 256.402344 272.855469 256.402344 273.199219 256.183594 273.414062 C 232.503906 296.542969 198.003906 302.101562 197.660156 302.152344 C 197.628906 302.160156 197.601562 302.160156 197.574219 302.160156 " fill-opacity="1" fill-rule="nonzero"/><path fill="#000000" d="M 224.785156 302.089844 C 224.5625 302.089844 224.351562 301.953125 224.269531 301.730469 C 224.164062 301.445312 224.3125 301.128906 224.59375 301.023438 C 224.859375 300.925781 251.089844 291.148438 259.960938 274.066406 C 260.097656 273.796875 260.429688 273.691406 260.699219 273.832031 C 260.96875 273.972656 261.074219 274.300781 260.933594 274.570312 C 251.867188 292.035156 225.242188 301.957031 224.972656 302.054688 C 224.910156 302.078125 224.847656 302.089844 224.785156 302.089844 " fill-opacity="1" fill-rule="nonzero"/><path fill="#000000" d="M 86.660156 60.976562 C 86.496094 60.976562 86.335938 60.902344 86.226562 60.765625 C 86.039062 60.527344 86.082031 60.179688 86.320312 59.996094 C 106.617188 44.066406 127.503906 38.484375 141.453125 36.609375 C 156.574219 34.574219 167.054688 36.332031 167.15625 36.351562 C 167.457031 36.402344 167.660156 36.6875 167.605469 36.988281 C 167.554688 37.285156 167.269531 37.484375 166.972656 37.433594 C 166.867188 37.414062 156.523438 35.683594 141.554688 37.703125 C 127.753906 39.566406 107.085938 45.09375 87 60.855469 C 86.898438 60.9375 86.777344 60.976562 86.660156 60.976562 " fill-opacity="1" fill-rule="nonzero"/><path fill="#000000" d="M 130.621094 33.445312 C 130.386719 33.445312 130.171875 33.296875 130.097656 33.0625 C 130.003906 32.773438 130.164062 32.464844 130.453125 32.371094 C 130.742188 32.28125 159.734375 23.265625 186.351562 32.152344 C 186.636719 32.25 186.792969 32.558594 186.699219 32.847656 C 186.601562 33.136719 186.289062 33.292969 186.003906 33.195312 C 159.71875 24.417969 131.074219 33.328125 130.789062 33.421875 C 130.730469 33.4375 130.675781 33.445312 130.621094 33.445312 " fill-opacity="1" fill-rule="nonzero"/><path fill="#000000" d="M 58.523438 50.273438 C 58.386719 50.273438 58.25 50.226562 58.144531 50.121094 C 57.925781 49.910156 57.917969 49.566406 58.125 49.347656 L 59.855469 47.539062 C 60.066406 47.320312 60.414062 47.3125 60.632812 47.523438 C 60.851562 47.730469 60.859375 48.078125 60.652344 48.300781 L 58.921875 50.105469 C 58.8125 50.21875 58.667969 50.273438 58.523438 50.273438 " fill-opacity="1" fill-rule="nonzero"/><path fill="#000000" d="M 52.472656 56.597656 C 52.335938 56.597656 52.199219 56.546875 52.089844 56.449219 C 51.871094 56.238281 51.863281 55.890625 52.074219 55.671875 L 53.804688 53.863281 C 54.011719 53.644531 54.359375 53.636719 54.582031 53.847656 C 54.800781 54.054688 54.808594 54.402344 54.597656 54.625 L 52.867188 56.429688 C 52.761719 56.542969 52.617188 56.597656 52.472656 56.597656 " fill-opacity="1" fill-rule="nonzero"/><path fill="#000000" d="M 54.167969 50.375 C 54.027344 50.375 53.890625 50.320312 53.78125 50.214844 L 52.027344 48.484375 C 51.808594 48.273438 51.808594 47.925781 52.019531 47.707031 C 52.234375 47.492188 52.582031 47.488281 52.796875 47.703125 L 54.554688 49.429688 C 54.769531 49.644531 54.773438 49.992188 54.558594 50.207031 C 54.453125 50.316406 54.308594 50.375 54.167969 50.375 " fill-opacity="1" fill-rule="nonzero"/><path fill="#000000" d="M 60.3125 56.425781 C 60.171875 56.425781 60.035156 56.371094 59.925781 56.265625 L 58.171875 54.535156 C 57.953125 54.324219 57.953125 53.976562 58.164062 53.757812 C 58.378906 53.542969 58.726562 53.542969 58.941406 53.753906 L 60.699219 55.484375 C 60.914062 55.699219 60.917969 56.046875 60.703125 56.261719 C 60.597656 56.371094 60.453125 56.425781 60.3125 56.425781 " fill-opacity="1" fill-rule="nonzero"/><path fill="#000000" d="M 217.828125 304.621094 C 216.933594 304.621094 216.066406 305.082031 215.589844 305.90625 C 214.878906 307.140625 215.300781 308.71875 216.535156 309.429688 C 217.765625 310.144531 219.347656 309.71875 220.058594 308.488281 C 220.402344 307.890625 220.496094 307.195312 220.316406 306.53125 C 220.136719 305.867188 219.710938 305.308594 219.113281 304.964844 C 218.707031 304.730469 218.265625 304.621094 217.828125 304.621094 Z M 217.816406 310.875 C 217.195312 310.875 216.5625 310.714844 215.984375 310.382812 C 214.226562 309.367188 213.625 307.113281 214.636719 305.359375 C 215.652344 303.601562 217.90625 303 219.664062 304.011719 C 220.515625 304.503906 221.125 305.296875 221.378906 306.25 C 221.632812 307.195312 221.5 308.1875 221.011719 309.039062 C 220.328125 310.214844 219.089844 310.875 217.816406 310.875 " fill-opacity="1" fill-rule="nonzero"/><path fill="#000000" d="M 194.246094 33.753906 C 193.710938 33.753906 193.1875 34.035156 192.902344 34.53125 C 192.472656 35.273438 192.726562 36.222656 193.46875 36.652344 C 194.210938 37.082031 195.164062 36.828125 195.589844 36.085938 C 196.019531 35.34375 195.765625 34.390625 195.023438 33.964844 C 194.777344 33.824219 194.511719 33.753906 194.246094 33.753906 Z M 194.242188 37.960938 C 193.792969 37.960938 193.335938 37.847656 192.917969 37.601562 C 191.652344 36.871094 191.21875 35.246094 191.949219 33.980469 C 192.679688 32.714844 194.308594 32.28125 195.570312 33.011719 C 196.839844 33.746094 197.273438 35.371094 196.542969 36.632812 C 196.054688 37.484375 195.160156 37.960938 194.242188 37.960938 " fill-opacity="1" fill-rule="nonzero"/></svg>